<?xml version="1.0" standalone="no"?>
<!DOCTYPE svg PUBLIC "-//W3C//DTD SVG 20010904//EN"
 "http://www.w3.org/TR/2001/REC-SVG-20010904/DTD/svg10.dtd">
<svg version="1.0" xmlns="http://www.w3.org/2000/svg"
 width="96.000000pt" height="96.000000pt" viewBox="0 0 96.000000 96.000000"
 preserveAspectRatio="xMidYMid meet">

    <g transform="translate(0.000000,96.000000) scale(0.100000,-0.100000)"
        fill="#e6d185" stroke="none">
<path d="M0 480 l0 -480 80 0 81 0 -6 33 c-17 87 41 174 149 224 56 26 71 28
176 28 106 0 120 -2 177 -29 87 -40 139 -97 148 -164 4 -28 4 -60 0 -71 -6
-20 -3 -21 74 -21 l81 0 0 480 0 480 -480 0 -480 0 0 -480z m564 195 c72 -34
112 -132 86 -210 -45 -136 -213 -172 -303 -65 -78 93 -51 225 57 277 57 27
100 26 160 -2z"/>
</g>
</svg>
