<?xml version="1.0" standalone="no"?>
<!DOCTYPE svg PUBLIC "-//W3C//DTD SVG 20010904//EN"
 "http://www.w3.org/TR/2001/REC-SVG-20010904/DTD/svg10.dtd">
<svg version="1.0" xmlns="http://www.w3.org/2000/svg"
 width="125.000000pt" height="125.000000pt" viewBox="0 0 125.000000 125.000000"
 preserveAspectRatio="xMidYMid meet">

    <defs>
        <linearGradient id="grad1" x1="0%" y1="0%" x2="100%" y2="0%">
            <stop offset="0%" style="stop-color:#730437;stop-opacity:1" />
            <stop offset="100%" style="stop-color:#e9b44f;stop-opacity:1" />
        </linearGradient>
    </defs>

    <g transform="translate(0.000000,125.000000) scale(0.100000,-0.100000)"
        fill="url(#grad1)" stroke="none">
        <path
            d="M472 1230 c-213 -56 -373 -210 -448 -430 -25 -73 -26 -271 -2 -346
71 -224 244 -388 464 -440 99 -23 246 -15 342 19 196 68 333 216 404 432 21
63 17 268 -6 335 -112 330 -434 514 -754 430z m330 -60 c37 -11 101 -43 142
-71 343 -229 336 -732 -14 -958 -180 -117 -430 -117 -610 0 -113 73 -193 174
-236 298 -112 322 83 670 419 747 81 18 212 11 299 -16z" />
        <path
            d="M534 905 c-5 -22 -12 -25 -49 -25 -23 0 -59 7 -78 15 -20 8 -43 15
-52 15 -24 0 -18 -49 15 -109 l30 -53 -60 -61 c-72 -72 -123 -147 -156 -227
-29 -71 -29 -70 -6 -70 14 0 27 18 47 65 45 107 184 274 213 256 10 -6 7 -12
-12 -24 -51 -34 -206 -247 -206 -284 0 -10 47 -13 230 -13 153 0 230 3 230 10
0 6 11 22 25 35 30 31 72 32 125 5 59 -30 115 -27 151 9 16 16 29 36 29 45 0
8 9 20 21 26 11 7 34 39 50 73 l29 61 -22 23 c-12 13 -28 23 -35 23 -18 0 -71
50 -86 81 -18 36 -113 79 -209 94 -46 7 -103 22 -128 34 -62 28 -88 27 -96 -4z
m129 -59 c143 -1 155 -3 207 -28 39 -18 48 -27 33 -27 -12 -1 -42 9 -65 22
-39 20 -55 22 -188 20 -97 -1 -163 3 -200 12 l-55 14 58 -6 c32 -3 127 -6 210
-7z m-159 -70 c13 -4 16 -10 9 -17 -19 -19 -103 27 -103 58 0 9 11 7 38 -10
20 -13 46 -27 56 -31z m299 -16 c14 -11 33 -20 42 -20 9 0 15 -6 13 -12 -3 -7
-18 -13 -33 -13 -22 0 -33 8 -48 33 -21 36 -12 41 26 12z m171 -39 c3 -4 -6
-6 -19 -3 -14 2 -25 6 -25 8 0 8 39 4 44 -5z m-387 -25 c-23 -35 -30 -90 -17
-131 14 -44 57 -68 120 -69 44 0 44 0 13 -9 -71 -21 -155 23 -167 87 -7 37 12
96 41 128 23 25 28 22 10 -6z m483 -48 c-1 -33 -16 -38 -40 -13 l-23 25 31 0
c19 0 32 -5 32 -12z m-187 -35 c-7 -2 -21 -2 -30 0 -10 3 -4 5 12 5 17 0 24
-2 18 -5z m-466 -54 c-12 -28 -23 -46 -25 -40 -3 9 35 91 42 91 3 0 -5 -23
-17 -51z m390 45 c-3 -3 -12 -4 -19 -1 -8 3 -5 6 6 6 11 1 17 -2 13 -5z m73
-60 c0 -10 6 -14 15 -11 8 4 17 2 20 -3 4 -6 17 -10 31 -10 25 0 32 -14 12
-26 -6 -4 -14 -2 -16 4 -2 7 -21 12 -42 12 -41 0 -55 11 -46 35 7 20 26 19 26
-1z" />
    </g>
</svg>